<mxfile host="app.diagrams.net" modified="2024-03-17T14:50:01.066Z" agent="Mozilla/5.0 (X11; Linux x86_64; rv:121.0) Gecko/20100101 Firefox/121.0" etag="8SiVJQOQD36Hj18RBFP2" version="24.0.7" type="device">
  <diagram name="Page-1" id="x8b_IuzD3OGmJa8tN6Dy">
    <mxGraphModel dx="794" dy="709" grid="1" gridSize="10" guides="1" tooltips="1" connect="1" arrows="1" fold="1" page="1" pageScale="1" pageWidth="850" pageHeight="1100" math="0" shadow="0">
      <root>
        <mxCell id="0" />
        <mxCell id="1" parent="0" />
        <mxCell id="RgWm9jb_VHg9oUvZ1fmF-1" value="Felhasználó" style="shape=umlActor;verticalLabelPosition=bottom;verticalAlign=top;html=1;outlineConnect=0;" parent="1" vertex="1">
          <mxGeometry x="100" y="220" width="30" height="60" as="geometry" />
        </mxCell>
        <mxCell id="RgWm9jb_VHg9oUvZ1fmF-2" value="szokások kezelése" style="ellipse;whiteSpace=wrap;html=1;" parent="1" vertex="1">
          <mxGeometry x="180" y="160" width="120" height="80" as="geometry" />
        </mxCell>
        <mxCell id="RgWm9jb_VHg9oUvZ1fmF-3" value="Új szokás felvétele" style="ellipse;whiteSpace=wrap;html=1;" parent="1" vertex="1">
          <mxGeometry x="280" y="50" width="90" height="40" as="geometry" />
        </mxCell>
        <mxCell id="RgWm9jb_VHg9oUvZ1fmF-6" value="alkalmak kezelése adott szokáshoz" style="ellipse;whiteSpace=wrap;html=1;" parent="1" vertex="1">
          <mxGeometry x="180" y="260" width="120" height="80" as="geometry" />
        </mxCell>
        <mxCell id="RgWm9jb_VHg9oUvZ1fmF-7" value="új alkalom felvétele" style="ellipse;whiteSpace=wrap;html=1;" parent="1" vertex="1">
          <mxGeometry x="442.5" y="200" width="117.5" height="50" as="geometry" />
        </mxCell>
        <mxCell id="RgWm9jb_VHg9oUvZ1fmF-8" value="Legutóbbi alkalom visszavonása" style="ellipse;whiteSpace=wrap;html=1;" parent="1" vertex="1">
          <mxGeometry x="442.5" y="260" width="120" height="50" as="geometry" />
        </mxCell>
        <mxCell id="RgWm9jb_VHg9oUvZ1fmF-9" value="Alkalmak szerkesztése" style="ellipse;whiteSpace=wrap;html=1;" parent="1" vertex="1">
          <mxGeometry x="432.5" y="330" width="130" height="50" as="geometry" />
        </mxCell>
        <mxCell id="RgWm9jb_VHg9oUvZ1fmF-11" value="OpenWeather API" style="shape=umlActor;verticalLabelPosition=bottom;verticalAlign=top;html=1;outlineConnect=0;" parent="1" vertex="1">
          <mxGeometry x="700" y="150" width="30" height="60" as="geometry" />
        </mxCell>
        <mxCell id="RgWm9jb_VHg9oUvZ1fmF-14" value="" style="endArrow=classic;html=1;rounded=0;exitX=1;exitY=0.5;exitDx=0;exitDy=0;entryX=0;entryY=0.5;entryDx=0;entryDy=0;dashed=1;" parent="1" source="RgWm9jb_VHg9oUvZ1fmF-6" target="RgWm9jb_VHg9oUvZ1fmF-7" edge="1">
          <mxGeometry width="50" height="50" relative="1" as="geometry">
            <mxPoint x="390" y="410" as="sourcePoint" />
            <mxPoint x="440" y="360" as="targetPoint" />
          </mxGeometry>
        </mxCell>
        <mxCell id="h1bIefvPFQQH5o5Ojs8A-5" value="&amp;lt;&amp;lt;include&amp;gt;&amp;gt;" style="edgeLabel;html=1;align=center;verticalAlign=middle;resizable=0;points=[];" vertex="1" connectable="0" parent="RgWm9jb_VHg9oUvZ1fmF-14">
          <mxGeometry x="-0.0606" y="2" relative="1" as="geometry">
            <mxPoint as="offset" />
          </mxGeometry>
        </mxCell>
        <mxCell id="RgWm9jb_VHg9oUvZ1fmF-15" value="" style="endArrow=classic;html=1;rounded=0;exitX=1;exitY=0.5;exitDx=0;exitDy=0;dashed=1;" parent="1" source="RgWm9jb_VHg9oUvZ1fmF-6" target="RgWm9jb_VHg9oUvZ1fmF-8" edge="1">
          <mxGeometry width="50" height="50" relative="1" as="geometry">
            <mxPoint x="372" y="302" as="sourcePoint" />
            <mxPoint x="443" y="235" as="targetPoint" />
          </mxGeometry>
        </mxCell>
        <mxCell id="h1bIefvPFQQH5o5Ojs8A-6" value="&amp;lt;&amp;lt;include&amp;gt;&amp;gt;" style="edgeLabel;html=1;align=center;verticalAlign=middle;resizable=0;points=[];" vertex="1" connectable="0" parent="RgWm9jb_VHg9oUvZ1fmF-15">
          <mxGeometry x="-0.0262" y="-2" relative="1" as="geometry">
            <mxPoint as="offset" />
          </mxGeometry>
        </mxCell>
        <mxCell id="RgWm9jb_VHg9oUvZ1fmF-16" value="" style="endArrow=classic;html=1;rounded=0;exitX=1;exitY=0.5;exitDx=0;exitDy=0;entryX=0;entryY=0.5;entryDx=0;entryDy=0;dashed=1;" parent="1" source="RgWm9jb_VHg9oUvZ1fmF-6" target="RgWm9jb_VHg9oUvZ1fmF-9" edge="1">
          <mxGeometry width="50" height="50" relative="1" as="geometry">
            <mxPoint x="382" y="312" as="sourcePoint" />
            <mxPoint x="453" y="245" as="targetPoint" />
          </mxGeometry>
        </mxCell>
        <mxCell id="h1bIefvPFQQH5o5Ojs8A-7" value="&amp;lt;&amp;lt;include&amp;gt;&amp;gt;" style="edgeLabel;html=1;align=center;verticalAlign=middle;resizable=0;points=[];" vertex="1" connectable="0" parent="RgWm9jb_VHg9oUvZ1fmF-16">
          <mxGeometry x="0.2096" y="-3" relative="1" as="geometry">
            <mxPoint as="offset" />
          </mxGeometry>
        </mxCell>
        <mxCell id="RgWm9jb_VHg9oUvZ1fmF-17" value="" style="endArrow=none;html=1;rounded=0;exitX=1;exitY=0.3333333333333333;exitDx=0;exitDy=0;exitPerimeter=0;" parent="1" source="RgWm9jb_VHg9oUvZ1fmF-1" target="RgWm9jb_VHg9oUvZ1fmF-2" edge="1">
          <mxGeometry width="50" height="50" relative="1" as="geometry">
            <mxPoint x="390" y="410" as="sourcePoint" />
            <mxPoint x="440" y="360" as="targetPoint" />
          </mxGeometry>
        </mxCell>
        <mxCell id="RgWm9jb_VHg9oUvZ1fmF-18" value="" style="endArrow=none;html=1;rounded=0;exitX=1;exitY=0.3333333333333333;exitDx=0;exitDy=0;exitPerimeter=0;" parent="1" source="RgWm9jb_VHg9oUvZ1fmF-1" target="RgWm9jb_VHg9oUvZ1fmF-6" edge="1">
          <mxGeometry width="50" height="50" relative="1" as="geometry">
            <mxPoint x="390" y="410" as="sourcePoint" />
            <mxPoint x="440" y="360" as="targetPoint" />
          </mxGeometry>
        </mxCell>
        <mxCell id="RgWm9jb_VHg9oUvZ1fmF-19" value="" style="endArrow=none;html=1;rounded=0;exitX=1;exitY=0;exitDx=0;exitDy=0;entryX=0;entryY=0.3333333333333333;entryDx=0;entryDy=0;entryPerimeter=0;" parent="1" source="RgWm9jb_VHg9oUvZ1fmF-7" target="RgWm9jb_VHg9oUvZ1fmF-11" edge="1">
          <mxGeometry width="50" height="50" relative="1" as="geometry">
            <mxPoint x="390" y="410" as="sourcePoint" />
            <mxPoint x="440" y="360" as="targetPoint" />
          </mxGeometry>
        </mxCell>
        <mxCell id="RgWm9jb_VHg9oUvZ1fmF-20" value="" style="endArrow=none;html=1;rounded=0;entryX=1;entryY=0;entryDx=0;entryDy=0;exitX=0;exitY=0.3333333333333333;exitDx=0;exitDy=0;exitPerimeter=0;" parent="1" source="RgWm9jb_VHg9oUvZ1fmF-11" target="RgWm9jb_VHg9oUvZ1fmF-9" edge="1">
          <mxGeometry width="50" height="50" relative="1" as="geometry">
            <mxPoint x="390" y="410" as="sourcePoint" />
            <mxPoint x="440" y="360" as="targetPoint" />
          </mxGeometry>
        </mxCell>
        <mxCell id="RgWm9jb_VHg9oUvZ1fmF-22" value="" style="endArrow=classic;html=1;rounded=0;exitX=0.5;exitY=0;exitDx=0;exitDy=0;dashed=1;" parent="1" source="RgWm9jb_VHg9oUvZ1fmF-2" target="RgWm9jb_VHg9oUvZ1fmF-3" edge="1">
          <mxGeometry width="50" height="50" relative="1" as="geometry">
            <mxPoint x="390" y="410" as="sourcePoint" />
            <mxPoint x="440" y="360" as="targetPoint" />
          </mxGeometry>
        </mxCell>
        <mxCell id="h1bIefvPFQQH5o5Ojs8A-2" value="&amp;lt;&amp;lt;include&amp;gt;&amp;gt;" style="edgeLabel;html=1;align=center;verticalAlign=middle;resizable=0;points=[];" vertex="1" connectable="0" parent="RgWm9jb_VHg9oUvZ1fmF-22">
          <mxGeometry x="0.2081" y="1" relative="1" as="geometry">
            <mxPoint as="offset" />
          </mxGeometry>
        </mxCell>
        <mxCell id="RgWm9jb_VHg9oUvZ1fmF-24" value="Meglévő szokás szerkesztése" style="ellipse;whiteSpace=wrap;html=1;" parent="1" vertex="1">
          <mxGeometry x="380" y="30" width="110" height="50" as="geometry" />
        </mxCell>
        <mxCell id="RgWm9jb_VHg9oUvZ1fmF-25" value="Meglévő szokás törlése" style="ellipse;whiteSpace=wrap;html=1;" parent="1" vertex="1">
          <mxGeometry x="436.25" y="80" width="110" height="50" as="geometry" />
        </mxCell>
        <mxCell id="RgWm9jb_VHg9oUvZ1fmF-26" value="" style="endArrow=classic;html=1;rounded=0;exitX=0.5;exitY=0;exitDx=0;exitDy=0;dashed=1;" parent="1" source="RgWm9jb_VHg9oUvZ1fmF-2" target="RgWm9jb_VHg9oUvZ1fmF-24" edge="1">
          <mxGeometry width="50" height="50" relative="1" as="geometry">
            <mxPoint x="390" y="410" as="sourcePoint" />
            <mxPoint x="440" y="360" as="targetPoint" />
          </mxGeometry>
        </mxCell>
        <mxCell id="h1bIefvPFQQH5o5Ojs8A-3" value="&amp;lt;&amp;lt;include&amp;gt;&amp;gt;" style="edgeLabel;html=1;align=center;verticalAlign=middle;resizable=0;points=[];" vertex="1" connectable="0" parent="RgWm9jb_VHg9oUvZ1fmF-26">
          <mxGeometry x="0.5654" y="-3" relative="1" as="geometry">
            <mxPoint as="offset" />
          </mxGeometry>
        </mxCell>
        <mxCell id="RgWm9jb_VHg9oUvZ1fmF-27" value="" style="endArrow=classic;html=1;rounded=0;exitX=0.5;exitY=0;exitDx=0;exitDy=0;entryX=0;entryY=0.5;entryDx=0;entryDy=0;dashed=1;" parent="1" source="RgWm9jb_VHg9oUvZ1fmF-2" target="RgWm9jb_VHg9oUvZ1fmF-25" edge="1">
          <mxGeometry width="50" height="50" relative="1" as="geometry">
            <mxPoint x="300" y="190" as="sourcePoint" />
            <mxPoint x="410" y="92" as="targetPoint" />
          </mxGeometry>
        </mxCell>
        <mxCell id="h1bIefvPFQQH5o5Ojs8A-4" value="&amp;lt;&amp;lt;include&amp;gt;&amp;gt;" style="edgeLabel;html=1;align=center;verticalAlign=middle;resizable=0;points=[];" vertex="1" connectable="0" parent="RgWm9jb_VHg9oUvZ1fmF-27">
          <mxGeometry x="0.3085" y="-2" relative="1" as="geometry">
            <mxPoint as="offset" />
          </mxGeometry>
        </mxCell>
        <mxCell id="RgWm9jb_VHg9oUvZ1fmF-30" value="Alkalmak és statisztikáik megtekintése" style="ellipse;whiteSpace=wrap;html=1;" parent="1" vertex="1">
          <mxGeometry x="432.5" y="400" width="117.5" height="60" as="geometry" />
        </mxCell>
        <mxCell id="RgWm9jb_VHg9oUvZ1fmF-33" value="" style="endArrow=classic;html=1;rounded=0;exitX=1;exitY=0.5;exitDx=0;exitDy=0;entryX=0;entryY=0.5;entryDx=0;entryDy=0;dashed=1;" parent="1" source="RgWm9jb_VHg9oUvZ1fmF-6" target="RgWm9jb_VHg9oUvZ1fmF-30" edge="1">
          <mxGeometry width="50" height="50" relative="1" as="geometry">
            <mxPoint x="390" y="380" as="sourcePoint" />
            <mxPoint x="440" y="330" as="targetPoint" />
          </mxGeometry>
        </mxCell>
        <mxCell id="h1bIefvPFQQH5o5Ojs8A-8" value="&amp;lt;&amp;lt;include&amp;gt;&amp;gt;" style="edgeLabel;html=1;align=center;verticalAlign=middle;resizable=0;points=[];" vertex="1" connectable="0" parent="RgWm9jb_VHg9oUvZ1fmF-33">
          <mxGeometry x="0.013" y="-3" relative="1" as="geometry">
            <mxPoint as="offset" />
          </mxGeometry>
        </mxCell>
        <mxCell id="h1bIefvPFQQH5o5Ojs8A-9" value="Meglévő szokások sorrendjének változtatása" style="ellipse;whiteSpace=wrap;html=1;" vertex="1" parent="1">
          <mxGeometry x="400" y="140" width="170" height="50" as="geometry" />
        </mxCell>
        <mxCell id="h1bIefvPFQQH5o5Ojs8A-10" value="" style="endArrow=classic;html=1;rounded=0;exitX=0.5;exitY=0;exitDx=0;exitDy=0;entryX=0;entryY=0.5;entryDx=0;entryDy=0;dashed=1;" edge="1" parent="1" target="h1bIefvPFQQH5o5Ojs8A-9">
          <mxGeometry width="50" height="50" relative="1" as="geometry">
            <mxPoint x="300" y="190" as="sourcePoint" />
            <mxPoint x="470" y="122" as="targetPoint" />
          </mxGeometry>
        </mxCell>
        <mxCell id="h1bIefvPFQQH5o5Ojs8A-11" value="&amp;lt;&amp;lt;include&amp;gt;&amp;gt;" style="edgeLabel;html=1;align=center;verticalAlign=middle;resizable=0;points=[];" vertex="1" connectable="0" parent="h1bIefvPFQQH5o5Ojs8A-10">
          <mxGeometry x="0.3085" y="-2" relative="1" as="geometry">
            <mxPoint as="offset" />
          </mxGeometry>
        </mxCell>
      </root>
    </mxGraphModel>
  </diagram>
</mxfile>
